# xmcd CD database file
#
# Track frame offsets:
#	182
#	21440
#	47575
#	67097
#	88207
#	109055
#	127417
#	150107
#	166032
#	183345
#	199235
#	221800
#	239370
#	256755
#	270467
#	284652
#	304552
#	324615
#
# Disc length: 4585 seconds
#
# Revision: 0
# Processed by: cddbd v1.5.1PL2 Copyright (c) Steve Scherf et al.
# Submitted via: CDex 1.51
#
DISCID=0811e712
DTITLE=Glady Knight and the Pips - The Very Best of Gladys Knight and the Pips - Disc 2
DYEAR=1996
DGENRE=Blues
TTITLE0=Midnight Train to Georgia
TTITLE1=It's a Better than Good Time
TTITLE2=Pipe Dreams
TTITLE3=Don't Burn Down the Bridge
TTITLE4=Make Yours a Happy Home
TTITLE5=Better You Go Your Way
TTITLE6=Summer Sun
TTITLE7=You Put New Life in My Body
TTITLE8=So Sad the Song
TTITLE9=I've Got to Use My Imagination
TTITLE10=Walk Softly
TTITLE11=Love Finds it's Own Way
TTITLE12=Everybody's Got to Find a Way
TTITLE13=The One and Only
TTITLE14=I'll Miss You
TTITLE15=Butterfly
TTITLE16=Where Peaceful Waters Flow
TTITLE17=I'm Coming Home Again
EXTD=YEAR: 1996
EXTT0=
EXTT1=
EXTT2=
EXTT3=
EXTT4=
EXTT5=
EXTT6=
EXTT7=
EXTT8=
EXTT9=
EXTT10=
EXTT11=
EXTT12=
EXTT13=
EXTT14=
EXTT15=
EXTT16=
EXTT17=
PLAYORDER=
